<svg width="252" height="28" viewBox="0 0 252 28" fill="none" xmlns="http://www.w3.org/2000/svg">
<path d="M0.9 27V26.424L3.132 25.2L12.456 3.06H14.976L24.192 25.128L26.64 26.424V27H16.272V26.424L19.404 25.164L16.848 18.9H8.208L5.688 25.164L8.676 26.424V27H0.9ZM9.036 16.92H16.02L12.528 8.316L9.036 16.92ZM28.8602 27V26.424L31.2002 25.272V14.4L28.9682 12.78V12.42L34.6562 10.296H35.0162L35.3402 12.96H35.5202C36.4082 12.096 37.2602 11.436 38.0762 10.98C38.9162 10.524 39.8642 10.296 40.9202 10.296C42.3602 10.296 43.5362 10.668 44.4482 11.412C45.3842 12.156 45.8522 13.236 45.8522 14.652V25.272L48.1922 26.424V27H39.5522V26.424L41.6762 25.272V16.2C41.6762 15.288 41.4002 14.592 40.8482 14.112C40.2962 13.608 39.5762 13.356 38.6882 13.356C38.1362 13.356 37.5482 13.452 36.9242 13.644C36.3002 13.836 35.7842 14.1 35.3762 14.436V25.272L37.5002 26.424V27H28.8602ZM56.6716 27.36C55.5196 27.36 54.4756 27.06 53.5396 26.46C52.6276 25.86 51.8956 25.008 51.3436 23.904C50.7916 22.8 50.5156 21.504 50.5156 20.016C50.5156 18 50.8876 16.272 51.6316 14.832C52.3996 13.368 53.4316 12.252 54.7276 11.484C56.0236 10.692 57.4756 10.296 59.0836 10.296C60.2596 10.296 61.2676 10.404 62.1076 10.62V4.104L59.6956 2.304V1.98L65.9236 -2.14577e-06H66.2476V25.38L68.8036 26.424V27H62.4676L62.1796 25.2H61.9276C61.0156 25.968 60.1516 26.52 59.3356 26.856C58.5196 27.192 57.6316 27.36 56.6716 27.36ZM54.6916 19.008C54.6916 20.928 55.1476 22.344 56.0596 23.256C56.9716 24.144 58.0276 24.588 59.2276 24.588C60.1876 24.588 61.1476 24.3 62.1076 23.724V13.464C61.6756 13.056 61.2196 12.744 60.7396 12.528C60.2836 12.288 59.7676 12.168 59.1916 12.168C58.3756 12.168 57.6316 12.384 56.9596 12.816C56.2876 13.224 55.7356 13.932 55.3036 14.94C54.8956 15.924 54.6916 17.28 54.6916 19.008ZM71.2963 27V26.424L73.6363 25.272V14.544L71.4043 12.78V12.42L77.0923 10.296H77.4163L77.7403 13.464H77.9203C78.4963 12.552 79.0123 11.868 79.4683 11.412C79.9243 10.956 80.3563 10.656 80.7643 10.512C81.1963 10.368 81.6283 10.296 82.0603 10.296C82.2523 10.296 82.4683 10.332 82.7083 10.404C82.9483 10.476 83.1643 10.548 83.3563 10.62C84.0763 10.86 84.4363 11.196 84.4363 11.628C84.4363 11.82 84.4003 12.024 84.3283 12.24L83.5003 14.364H83.2483L82.1323 13.932C81.7963 13.812 81.4963 13.74 81.2323 13.716C80.9923 13.668 80.7163 13.644 80.4043 13.644C79.3963 13.644 78.5203 14.136 77.7763 15.12V25.272L80.5483 26.424V27H71.2963ZM94.0514 27.36C91.6514 27.36 89.7434 26.652 88.3274 25.236C86.9354 23.82 86.2394 21.936 86.2394 19.584C86.2394 17.76 86.6234 16.152 87.3914 14.76C88.1594 13.368 89.1674 12.276 90.4154 11.484C91.6874 10.692 93.0914 10.296 94.6274 10.296C96.5474 10.296 98.0474 10.956 99.1274 12.276C100.207 13.596 100.759 15.456 100.783 17.856L100.639 18.036H90.2714C90.2714 19.116 90.4634 20.112 90.8474 21.024C91.2314 21.912 91.8554 22.632 92.7194 23.184C93.5834 23.712 94.7234 23.976 96.1394 23.976C96.8114 23.976 97.5314 23.88 98.2994 23.688C99.0674 23.496 99.8714 23.172 100.711 22.716H100.819V23.22C100.243 24.396 99.3674 25.38 98.1914 26.172C97.0154 26.964 95.6354 27.36 94.0514 27.36ZM93.9074 11.916C92.9474 11.916 92.1554 12.312 91.5314 13.104C90.9074 13.896 90.5114 15 90.3434 16.416H97.2914C97.0754 14.76 96.6794 13.596 96.1034 12.924C95.5274 12.252 94.7954 11.916 93.9074 11.916ZM107.988 27.36C106.836 27.36 105.852 27.012 105.036 26.316C104.244 25.62 103.86 24.636 103.884 23.364C103.908 22.116 104.328 21.096 105.144 20.304C105.96 19.488 107.472 18.816 109.68 18.288L113.064 17.46V15.084C113.064 14.196 112.764 13.476 112.164 12.924C111.564 12.348 110.844 12.06 110.004 12.06C109.164 12.06 108.576 12.264 108.24 12.672C107.904 13.056 107.736 13.62 107.736 14.364V15.768L107.556 15.912H105.396C105.036 15.912 104.784 15.84 104.64 15.696C104.496 15.552 104.424 15.264 104.424 14.832C104.424 13.704 105.144 12.708 106.584 11.844C107.352 11.364 108.108 10.992 108.852 10.728C109.62 10.44 110.424 10.296 111.264 10.296C112.32 10.296 113.304 10.44 114.216 10.728C115.128 11.016 115.86 11.472 116.412 12.096C116.964 12.72 117.24 13.56 117.24 14.616V24.444C117.576 24.828 118.188 25.02 119.076 25.02H120.264L120.372 25.128V25.488C120.084 25.968 119.64 26.4 119.04 26.784C118.44 27.168 117.672 27.36 116.736 27.36C115.824 27.36 115.08 27.156 114.504 26.748C113.952 26.316 113.556 25.74 113.316 25.02H113.064C112.44 25.692 111.696 26.256 110.832 26.712C109.968 27.144 109.02 27.36 107.988 27.36ZM107.844 22.464C107.844 23.232 108.06 23.808 108.492 24.192C108.948 24.552 109.572 24.732 110.364 24.732C110.82 24.732 111.252 24.684 111.66 24.588C112.092 24.492 112.56 24.336 113.064 24.12V18.828C111.576 19.116 110.46 19.44 109.716 19.8C108.972 20.136 108.468 20.52 108.204 20.952C107.964 21.384 107.844 21.888 107.844 22.464Z" fill="black"/>
<path d="M139.269 27.36C137.733 27.36 136.389 27.216 135.237 26.928C134.109 26.616 132.981 26.172 131.853 25.596L131.493 19.584H132.141L134.337 23.724C135.825 24.948 137.385 25.56 139.017 25.56C140.361 25.56 141.441 25.236 142.257 24.588C143.073 23.916 143.481 22.968 143.481 21.744C143.481 20.832 143.265 20.1 142.833 19.548C142.425 18.972 141.789 18.456 140.925 18C140.061 17.52 138.933 16.968 137.541 16.344C135.861 15.528 134.565 14.652 133.653 13.716C132.741 12.756 132.285 11.472 132.285 9.864C132.285 8.952 132.513 8.076 132.969 7.236C133.425 6.396 134.025 5.652 134.769 5.004C135.537 4.356 136.389 3.84 137.325 3.456C138.285 3.072 139.269 2.88 140.277 2.88C141.477 2.88 142.593 3.024 143.625 3.312C144.681 3.576 145.689 3.96 146.649 4.464L147.009 10.224H146.397L144.201 6.264C143.505 5.736 142.857 5.34 142.257 5.076C141.657 4.812 140.973 4.68 140.205 4.68C139.197 4.68 138.357 5.016 137.685 5.688C137.037 6.36 136.713 7.212 136.713 8.244C136.713 9.324 137.073 10.2 137.793 10.872C138.513 11.52 139.713 12.24 141.393 13.032C142.857 13.704 144.057 14.364 144.993 15.012C145.929 15.66 146.625 16.392 147.081 17.208C147.537 18.024 147.765 19.032 147.765 20.232C147.765 21.384 147.513 22.404 147.009 23.292C146.529 24.156 145.869 24.9 145.029 25.524C144.213 26.124 143.301 26.58 142.293 26.892C141.285 27.204 140.277 27.36 139.269 27.36ZM159.368 27.36C157.832 27.36 156.488 27.036 155.336 26.388C154.184 25.74 153.284 24.84 152.636 23.688C152.012 22.512 151.7 21.144 151.7 19.584C151.7 17.76 152.072 16.152 152.816 14.76C153.56 13.368 154.58 12.276 155.876 11.484C157.196 10.692 158.708 10.296 160.412 10.296C161.468 10.296 162.452 10.464 163.364 10.8C164.3 11.112 164.996 11.532 165.452 12.06C165.836 12.516 166.028 12.876 166.028 13.14C166.028 13.476 165.872 13.764 165.56 14.004L164.012 15.336H163.76L162.5 13.644C162.092 13.092 161.66 12.66 161.204 12.348C160.748 12.036 160.16 11.88 159.44 11.88C158.24 11.88 157.316 12.42 156.668 13.5C156.044 14.58 155.732 16.044 155.732 17.892C155.732 18.972 155.912 19.98 156.272 20.916C156.656 21.828 157.256 22.572 158.072 23.148C158.912 23.7 160.016 23.976 161.384 23.976C162.056 23.976 162.776 23.88 163.544 23.688C164.312 23.496 165.128 23.172 165.992 22.716H166.1V23.22C165.524 24.372 164.648 25.356 163.472 26.172C162.32 26.964 160.952 27.36 159.368 27.36ZM173.028 27.36C171.876 27.36 170.892 27.012 170.076 26.316C169.284 25.62 168.9 24.636 168.924 23.364C168.948 22.116 169.368 21.096 170.184 20.304C171 19.488 172.512 18.816 174.72 18.288L178.104 17.46V15.084C178.104 14.196 177.804 13.476 177.204 12.924C176.604 12.348 175.884 12.06 175.044 12.06C174.204 12.06 173.616 12.264 173.28 12.672C172.944 13.056 172.776 13.62 172.776 14.364V15.768L172.596 15.912H170.436C170.076 15.912 169.824 15.84 169.68 15.696C169.536 15.552 169.464 15.264 169.464 14.832C169.464 13.704 170.184 12.708 171.624 11.844C172.392 11.364 173.148 10.992 173.892 10.728C174.66 10.44 175.464 10.296 176.304 10.296C177.36 10.296 178.344 10.44 179.256 10.728C180.168 11.016 180.9 11.472 181.452 12.096C182.004 12.72 182.28 13.56 182.28 14.616V24.444C182.616 24.828 183.228 25.02 184.116 25.02H185.304L185.412 25.128V25.488C185.124 25.968 184.68 26.4 184.08 26.784C183.48 27.168 182.712 27.36 181.776 27.36C180.864 27.36 180.12 27.156 179.544 26.748C178.992 26.316 178.596 25.74 178.356 25.02H178.104C177.48 25.692 176.736 26.256 175.872 26.712C175.008 27.144 174.06 27.36 173.028 27.36ZM172.884 22.464C172.884 23.232 173.1 23.808 173.532 24.192C173.988 24.552 174.612 24.732 175.404 24.732C175.86 24.732 176.292 24.684 176.7 24.588C177.132 24.492 177.6 24.336 178.104 24.12V18.828C176.616 19.116 175.5 19.44 174.756 19.8C174.012 20.136 173.508 20.52 173.244 20.952C173.004 21.384 172.884 21.888 172.884 22.464ZM194.876 27.36C193.34 27.36 191.996 27.036 190.844 26.388C189.692 25.74 188.792 24.84 188.144 23.688C187.52 22.512 187.208 21.144 187.208 19.584C187.208 17.76 187.58 16.152 188.324 14.76C189.068 13.368 190.088 12.276 191.384 11.484C192.704 10.692 194.216 10.296 195.92 10.296C196.976 10.296 197.96 10.464 198.872 10.8C199.808 11.112 200.504 11.532 200.96 12.06C201.344 12.516 201.536 12.876 201.536 13.14C201.536 13.476 201.38 13.764 201.068 14.004L199.52 15.336H199.268L198.008 13.644C197.6 13.092 197.168 12.66 196.712 12.348C196.256 12.036 195.668 11.88 194.948 11.88C193.748 11.88 192.824 12.42 192.176 13.5C191.552 14.58 191.24 16.044 191.24 17.892C191.24 18.972 191.42 19.98 191.78 20.916C192.164 21.828 192.764 22.572 193.58 23.148C194.42 23.7 195.524 23.976 196.892 23.976C197.564 23.976 198.284 23.88 199.052 23.688C199.82 23.496 200.636 23.172 201.5 22.716H201.608V23.22C201.032 24.372 200.156 25.356 198.98 26.172C197.828 26.964 196.46 27.36 194.876 27.36ZM212.103 27.36C210.567 27.36 209.223 27.036 208.071 26.388C206.919 25.74 206.019 24.84 205.371 23.688C204.747 22.512 204.435 21.144 204.435 19.584C204.435 17.76 204.807 16.152 205.551 14.76C206.295 13.368 207.315 12.276 208.611 11.484C209.931 10.692 211.443 10.296 213.147 10.296C214.203 10.296 215.187 10.464 216.099 10.8C217.035 11.112 217.731 11.532 218.187 12.06C218.571 12.516 218.763 12.876 218.763 13.14C218.763 13.476 218.607 13.764 218.295 14.004L216.747 15.336H216.495L215.235 13.644C214.827 13.092 214.395 12.66 213.939 12.348C213.483 12.036 212.895 11.88 212.175 11.88C210.975 11.88 210.051 12.42 209.403 13.5C208.779 14.58 208.467 16.044 208.467 17.892C208.467 18.972 208.647 19.98 209.007 20.916C209.391 21.828 209.991 22.572 210.807 23.148C211.647 23.7 212.751 23.976 214.119 23.976C214.791 23.976 215.511 23.88 216.279 23.688C217.047 23.496 217.863 23.172 218.727 22.716H218.835V23.22C218.259 24.372 217.383 25.356 216.207 26.172C215.055 26.964 213.687 27.36 212.103 27.36ZM221.481 27V26.424L223.821 25.272V4.104L221.589 2.34V1.98L227.637 -2.14577e-06H227.997V12.96H228.141C229.029 12.096 229.881 11.436 230.697 10.98C231.537 10.524 232.485 10.296 233.541 10.296C234.981 10.296 236.157 10.668 237.069 11.412C238.005 12.156 238.473 13.236 238.473 14.652V25.272L240.813 26.424V27H232.173V26.424L234.297 25.344V16.2C234.297 15.288 234.021 14.592 233.469 14.112C232.917 13.608 232.197 13.356 231.309 13.356C230.757 13.356 230.169 13.452 229.545 13.644C228.921 13.836 228.405 14.1 227.997 14.436V25.344L230.121 26.424V27H221.481ZM247.531 6.444C246.835 6.444 246.259 6.216 245.803 5.76C245.347 5.28 245.119 4.692 245.119 3.996C245.119 3.3 245.347 2.724 245.803 2.268C246.259 1.812 246.835 1.584 247.531 1.584C248.227 1.584 248.803 1.812 249.259 2.268C249.739 2.724 249.979 3.3 249.979 3.996C249.979 4.692 249.739 5.28 249.259 5.76C248.803 6.216 248.227 6.444 247.531 6.444ZM243.211 27V26.424L245.551 25.272V14.4L243.319 12.672V12.276L249.367 10.296H249.727V25.272L251.923 26.424V27H243.211Z" fill="#FCFCFC"/>
</svg>
